<mxfile host="app.diagrams.net" modified="2024-07-11T09:22:45.846Z" agent="Mozilla/5.0 (Windows NT 10.0; Win64; x64) AppleWebKit/537.36 (KHTML, like Gecko) Chrome/126.0.0.0 Safari/537.36" etag="nzU4Tz4avwrL0MRTZQ3Q" version="24.6.4" type="device">
  <diagram name="Page-1" id="Tlwyq2mgd1EDUDsvM0vF">
    <mxGraphModel dx="1400" dy="543" grid="1" gridSize="10" guides="1" tooltips="1" connect="1" arrows="1" fold="1" page="1" pageScale="1" pageWidth="850" pageHeight="1100" math="0" shadow="0">
      <root>
        <mxCell id="0" />
        <mxCell id="1" parent="0" />
        <mxCell id="CCZDvjkwoN-cgT9fB63p-1" value="Amazon" style="ellipse;whiteSpace=wrap;html=1;aspect=fixed;" vertex="1" parent="1">
          <mxGeometry x="350" y="430" width="160" height="160" as="geometry" />
        </mxCell>
        <mxCell id="CCZDvjkwoN-cgT9fB63p-2" value="Customer" style="rounded=1;whiteSpace=wrap;html=1;" vertex="1" parent="1">
          <mxGeometry x="30" y="490" width="120" height="60" as="geometry" />
        </mxCell>
        <mxCell id="CCZDvjkwoN-cgT9fB63p-3" value="Admin" style="rounded=1;whiteSpace=wrap;html=1;" vertex="1" parent="1">
          <mxGeometry x="700" y="500" width="120" height="60" as="geometry" />
        </mxCell>
        <mxCell id="CCZDvjkwoN-cgT9fB63p-4" value="Seller" style="rounded=1;whiteSpace=wrap;html=1;" vertex="1" parent="1">
          <mxGeometry x="380" y="240" width="120" height="60" as="geometry" />
        </mxCell>
        <mxCell id="CCZDvjkwoN-cgT9fB63p-5" value="" style="endArrow=classic;html=1;rounded=0;exitX=1;exitY=0.25;exitDx=0;exitDy=0;entryX=0;entryY=0.5;entryDx=0;entryDy=0;" edge="1" parent="1" source="CCZDvjkwoN-cgT9fB63p-2" target="CCZDvjkwoN-cgT9fB63p-1">
          <mxGeometry width="50" height="50" relative="1" as="geometry">
            <mxPoint x="180" y="520" as="sourcePoint" />
            <mxPoint x="230" y="470" as="targetPoint" />
          </mxGeometry>
        </mxCell>
        <mxCell id="CCZDvjkwoN-cgT9fB63p-6" value="Order goods" style="edgeLabel;html=1;align=center;verticalAlign=middle;resizable=0;points=[];" vertex="1" connectable="0" parent="CCZDvjkwoN-cgT9fB63p-5">
          <mxGeometry x="0.183" y="3" relative="1" as="geometry">
            <mxPoint as="offset" />
          </mxGeometry>
        </mxCell>
        <mxCell id="CCZDvjkwoN-cgT9fB63p-7" value="" style="endArrow=classic;html=1;rounded=0;exitX=0.061;exitY=0.733;exitDx=0;exitDy=0;exitPerimeter=0;" edge="1" parent="1" source="CCZDvjkwoN-cgT9fB63p-1" target="CCZDvjkwoN-cgT9fB63p-2">
          <mxGeometry width="50" height="50" relative="1" as="geometry">
            <mxPoint x="200" y="660" as="sourcePoint" />
            <mxPoint x="250" y="610" as="targetPoint" />
          </mxGeometry>
        </mxCell>
        <mxCell id="CCZDvjkwoN-cgT9fB63p-8" value="Deliver goods" style="edgeLabel;html=1;align=center;verticalAlign=middle;resizable=0;points=[];" vertex="1" connectable="0" parent="CCZDvjkwoN-cgT9fB63p-7">
          <mxGeometry x="-0.1044" relative="1" as="geometry">
            <mxPoint as="offset" />
          </mxGeometry>
        </mxCell>
        <mxCell id="CCZDvjkwoN-cgT9fB63p-9" value="" style="endArrow=classic;html=1;rounded=0;exitX=0.25;exitY=1;exitDx=0;exitDy=0;entryX=0.356;entryY=0.005;entryDx=0;entryDy=0;entryPerimeter=0;" edge="1" parent="1" source="CCZDvjkwoN-cgT9fB63p-4" target="CCZDvjkwoN-cgT9fB63p-1">
          <mxGeometry width="50" height="50" relative="1" as="geometry">
            <mxPoint x="300" y="410" as="sourcePoint" />
            <mxPoint x="350" y="360" as="targetPoint" />
          </mxGeometry>
        </mxCell>
        <mxCell id="CCZDvjkwoN-cgT9fB63p-11" value="Manage&amp;nbsp;&lt;div&gt;products&lt;/div&gt;" style="edgeLabel;html=1;align=center;verticalAlign=middle;resizable=0;points=[];" vertex="1" connectable="0" parent="CCZDvjkwoN-cgT9fB63p-9">
          <mxGeometry x="-0.0423" y="-3" relative="1" as="geometry">
            <mxPoint as="offset" />
          </mxGeometry>
        </mxCell>
        <mxCell id="CCZDvjkwoN-cgT9fB63p-10" value="" style="endArrow=classic;html=1;rounded=0;exitX=0.653;exitY=0.028;exitDx=0;exitDy=0;exitPerimeter=0;entryX=0.75;entryY=1;entryDx=0;entryDy=0;" edge="1" parent="1" source="CCZDvjkwoN-cgT9fB63p-1" target="CCZDvjkwoN-cgT9fB63p-4">
          <mxGeometry width="50" height="50" relative="1" as="geometry">
            <mxPoint x="430" y="410" as="sourcePoint" />
            <mxPoint x="480" y="360" as="targetPoint" />
          </mxGeometry>
        </mxCell>
        <mxCell id="CCZDvjkwoN-cgT9fB63p-12" value="Give&amp;nbsp;&lt;div&gt;order details&lt;/div&gt;" style="edgeLabel;html=1;align=center;verticalAlign=middle;resizable=0;points=[];" vertex="1" connectable="0" parent="CCZDvjkwoN-cgT9fB63p-10">
          <mxGeometry x="0.0103" y="1" relative="1" as="geometry">
            <mxPoint as="offset" />
          </mxGeometry>
        </mxCell>
        <mxCell id="CCZDvjkwoN-cgT9fB63p-13" value="" style="endArrow=classic;html=1;rounded=0;exitX=0;exitY=0.25;exitDx=0;exitDy=0;entryX=1.009;entryY=0.454;entryDx=0;entryDy=0;entryPerimeter=0;" edge="1" parent="1" source="CCZDvjkwoN-cgT9fB63p-3" target="CCZDvjkwoN-cgT9fB63p-1">
          <mxGeometry width="50" height="50" relative="1" as="geometry">
            <mxPoint x="560" y="520" as="sourcePoint" />
            <mxPoint x="610" y="470" as="targetPoint" />
          </mxGeometry>
        </mxCell>
        <mxCell id="CCZDvjkwoN-cgT9fB63p-14" value="Manage&amp;nbsp;&lt;div&gt;Website&lt;/div&gt;" style="edgeLabel;html=1;align=center;verticalAlign=middle;resizable=0;points=[];" vertex="1" connectable="0" parent="CCZDvjkwoN-cgT9fB63p-13">
          <mxGeometry x="0.1922" y="-3" relative="1" as="geometry">
            <mxPoint as="offset" />
          </mxGeometry>
        </mxCell>
        <mxCell id="CCZDvjkwoN-cgT9fB63p-15" value="" style="endArrow=classic;html=1;rounded=0;exitX=0.958;exitY=0.672;exitDx=0;exitDy=0;exitPerimeter=0;entryX=0;entryY=0.75;entryDx=0;entryDy=0;" edge="1" parent="1" source="CCZDvjkwoN-cgT9fB63p-1" target="CCZDvjkwoN-cgT9fB63p-3">
          <mxGeometry width="50" height="50" relative="1" as="geometry">
            <mxPoint x="570" y="590" as="sourcePoint" />
            <mxPoint x="620" y="540" as="targetPoint" />
          </mxGeometry>
        </mxCell>
        <mxCell id="CCZDvjkwoN-cgT9fB63p-16" value="Gives data" style="edgeLabel;html=1;align=center;verticalAlign=middle;resizable=0;points=[];" vertex="1" connectable="0" parent="CCZDvjkwoN-cgT9fB63p-15">
          <mxGeometry x="-0.1254" y="-1" relative="1" as="geometry">
            <mxPoint as="offset" />
          </mxGeometry>
        </mxCell>
      </root>
    </mxGraphModel>
  </diagram>
</mxfile>
